<svg id="Group_1613" data-name="Group 1613" xmlns="http://www.w3.org/2000/svg" xmlns:xlink="http://www.w3.org/1999/xlink" width="155.604" height="204.996" viewBox="0 0 155.604 204.996">
  <defs>
    <clipPath id="clip-path">
      <rect id="Rectangle_330" data-name="Rectangle 330" width="155.604" height="204.996" fill="none"/>
    </clipPath>
  </defs>
  <g id="Group_1611" data-name="Group 1611" transform="translate(0 0)">
    <g id="Group_1610" data-name="Group 1610" clip-path="url(#clip-path)">
      <path id="Path_407" data-name="Path 407" d="M160.127,140.256c-1.924-21.678-18.341-24.832-23.327-25.282a1.12,1.12,0,0,1-1.015-1.012,16.19,16.19,0,0,0-3.6-8.9c-3.3-3.879-8.492-5.75-15.419-5.559a1.125,1.125,0,0,1-1.052-.65,18.945,18.945,0,0,0-5.75-6.982c-4.089-3.072-9.3-4.532-15.5-4.339a1.121,1.121,0,0,1-1.153-1.173l2.365-52.814v-.01a15.834,15.834,0,0,0-.98-5.309,12.892,12.892,0,0,0-7.641-7.864,119.306,119.306,0,0,0-18.211-5.177l-.138-.028a17.48,17.48,0,0,0-12.01,2.93c-3.9,2.728-6.321,7-7.183,12.708C47.385,44.867,44.074,87.418,43.432,95.8a1.128,1.128,0,0,1-.816,1A34.259,34.259,0,0,0,29.1,104.436a31.347,31.347,0,0,0-7.11,9.762,38.686,38.686,0,0,0-3.411,15.21c-.77,23.838,11.255,31.4,14.958,33.156a1.115,1.115,0,0,1,.637,1.062l-.545,12.562c-1.63-.6-5.878-2.332-7.53-4.632a12.886,12.886,0,0,1,.267-3.81,2.015,2.015,0,0,0-.475-2.143,2.632,2.632,0,0,0-2.789-.358c-1.48.578-2.288,2.619-2.595,3.584a5.778,5.778,0,0,0-3.873.486,2.844,2.844,0,0,0-1.269,2.011,2.606,2.606,0,0,0,.351,1.9,1.94,1.94,0,0,0-.617.827,2.252,2.252,0,0,0,.216,1.876,2.935,2.935,0,0,0,.07,2.1,2.607,2.607,0,0,0,1.715,1.337,4.1,4.1,0,0,0,1.168.177,3.216,3.216,0,0,0,1.775-.51,8,8,0,0,0,4.874.025c1.015.733,4.838,3.326,8.433,3.577l-.535,12.325a2.174,2.174,0,0,0,2.044,2.257l19.808,1.1v11.715c-.6.26-1.972.866-3.385,1.612-3.522,1.861-4.1,2.882-4.223,3.487a2.284,2.284,0,0,0,.274,1.982,2.314,2.314,0,0,0,1.875.635H61.929a1.247,1.247,0,0,0,.159.01,1.17,1.17,0,0,0,.769-.273,1.6,1.6,0,0,0,.451-1.382c-.07-1.154-1.045-14.353-1.268-17.376L86.8,200.11c.905,6.105,2.174,15.112,2.12,16a1.6,1.6,0,0,0,.451,1.382,1.17,1.17,0,0,0,.768.273,1.251,1.251,0,0,0,.159-.01h12.721a2.314,2.314,0,0,0,1.876-.635,2.287,2.287,0,0,0,.274-1.982c-.127-.606-.7-1.626-4.223-3.487-1.471-.777-2.891-1.4-3.455-1.642l-2.054-9.414,28.423,1.583c.04,0,.08,0,.121,0a2.127,2.127,0,0,0,.308-.022l9.207-1.324a16.749,16.749,0,0,1,.064,2.388,3.268,3.268,0,0,0-3.264,1.643c-.785,1.413-.579,2.3-.268,2.8a1.847,1.847,0,0,0,.535.551,3.05,3.05,0,0,0,1.55,3.1,3.48,3.48,0,0,0,1.873.565,3.4,3.4,0,0,0,1.3-.262.89.89,0,0,1,.634-.019,2.777,2.777,0,0,0,2.1-.018,1.026,1.026,0,0,1,.215-.08,2.822,2.822,0,0,0,2.224-2.393c.393-2.828-.306-4.728-1.971-5.408.013-.633.018-1.952-.1-3.577l1.8-.259a2.159,2.159,0,0,0,1.857-2.093c.1-4.123.5-18.01,1.74-23.617a1.124,1.124,0,0,1,.593-.764,28.369,28.369,0,0,0,9.9-8.655A31.015,31.015,0,0,0,159,154.8a41.005,41.005,0,0,0,1.128-14.543" transform="translate(-13.864 -13.883)" fill="#b30735"/>
      <path id="Path_408" data-name="Path 408" d="M76.272,205a2.272,2.272,0,0,1-1.495-.542,2.641,2.641,0,0,1-.84-2.291c.015-.73-.842-7.172-1.977-14.871l-22.575-1.257c.342,4.63,1.112,15.081,1.175,16.121a2.643,2.643,0,0,1-.84,2.3,2.266,2.266,0,0,1-1.5.542c-.074,0-.147,0-.218-.01H35.344a2.977,2.977,0,0,1-3.243-3.964c.2-.951.922-2.2,4.794-4.247,1.046-.552,2.056-1.025,2.79-1.354V185.5l-18.753-1.045a3.3,3.3,0,0,1-3.1-3.422l.49-11.3a20.907,20.907,0,0,1-7.448-3.315,9.208,9.208,0,0,1-4.551-.069,4.413,4.413,0,0,1-1.921.43,5.216,5.216,0,0,1-1.487-.223,3.693,3.693,0,0,1-2.4-1.926,3.891,3.891,0,0,1-.244-2.483,3.2,3.2,0,0,1-.079-2.373,2.957,2.957,0,0,1,.333-.634A3.906,3.906,0,0,1,.4,157.262,3.973,3.973,0,0,1,2.162,154.5a6.117,6.117,0,0,1,3.735-.765,5.913,5.913,0,0,1,2.934-3.408,3.732,3.732,0,0,1,3.963.586,3.147,3.147,0,0,1,.772,3.3,10.649,10.649,0,0,0-.231,3.061c1.21,1.455,3.681,2.689,5.382,3.416l.477-10.991c-3.857-1.828-16.387-9.689-15.6-34.2A39.79,39.79,0,0,1,7.114,99.844a32.456,32.456,0,0,1,7.363-10.108,35.409,35.409,0,0,1,13.972-7.892.017.017,0,0,0,.005-.006c.643-8.394,3.957-50.984,6.087-65.092C35.451,10.728,38.024,6.2,42.19,3.29A18.562,18.562,0,0,1,49.895.242,15.988,15.988,0,0,1,55.063.181l.14.029A120.436,120.436,0,0,1,73.587,5.437a13.98,13.98,0,0,1,8.293,8.525,16.947,16.947,0,0,1,1.047,5.705c0,.016,0,.031,0,.047L80.561,72.528l0,.005c6.458-.2,11.91,1.335,16.206,4.563a20.076,20.076,0,0,1,6.091,7.4.011.011,0,0,0,.006.006c7.284-.2,12.768,1.8,16.3,5.951a17.314,17.314,0,0,1,3.864,9.525,27.659,27.659,0,0,1,13.364,4.885,24.36,24.36,0,0,1,7.083,7.929,33.3,33.3,0,0,1,3.895,13.482,42.116,42.116,0,0,1-1.164,14.939,32.13,32.13,0,0,1-4.89,10.3,29.52,29.52,0,0,1-10.306,9s0,0,0,.007c-1.216,5.509-1.619,19.3-1.714,23.4a3.272,3.272,0,0,1-2.815,3.174l-.784.113c.036.772.047,1.438.046,1.95,1.178.768,2.476,2.471,1.954,6.229a3.929,3.929,0,0,1-3.051,3.322l-.012.006a3.794,3.794,0,0,1-2.864.093,4.531,4.531,0,0,1-1.651.316,4.587,4.587,0,0,1-2.467-.736,4.252,4.252,0,0,1-2.113-3.581,2.915,2.915,0,0,1-.325-.427c-.471-.755-.81-2.05.239-3.937a4.255,4.255,0,0,1,3.136-2.183v-.028l-8.007,1.151a3.25,3.25,0,0,1-.467.034c-.058,0-.118,0-.183-.005l-26.956-1.5,1.619,7.42c.719.318,1.851.84,3.007,1.45,3.87,2.046,4.6,3.295,4.794,4.247a2.977,2.977,0,0,1-3.244,3.964H76.491c-.071.006-.145.01-.219.01m-28.1-21.266.062,0,24.756,1.379a1.118,1.118,0,0,1,1.043.952c.369,2.49,2.206,14.972,2.13,16.228-.02.325.045.45.063.466a.163.163,0,0,0,.041,0h.017a1.089,1.089,0,0,1,.142-.009H89.152c.289,0,.828,0,1.009-.223s.109-.755.047-1.05c-.044-.209-.437-1.028-3.651-2.727-1.434-.758-2.836-1.373-3.372-1.6a1.118,1.118,0,0,1-.652-.789l-2.054-9.414a1.117,1.117,0,0,1,1.154-1.354l28.423,1.583a1.037,1.037,0,0,0,.205-.009l9.21-1.324a1.118,1.118,0,0,1,1.271,1,17.944,17.944,0,0,1,.068,2.548,1.117,1.117,0,0,1-1.24,1.058,2.154,2.154,0,0,0-2.164,1.075c-.406.731-.512,1.323-.3,1.668a.733.733,0,0,0,.215.219,1.117,1.117,0,0,1,.469,1.132,1.933,1.933,0,0,0,1.047,1.949,2.388,2.388,0,0,0,1.278.393,2.279,2.279,0,0,0,.87-.176,2.009,2.009,0,0,1,1.432-.044,1.7,1.7,0,0,0,1.251.028,2.1,2.1,0,0,1,.446-.16,1.679,1.679,0,0,0,1.364-1.457c.181-1.305.255-3.589-1.287-4.219a1.117,1.117,0,0,1-.695-1.058c.013-.614.018-1.883-.1-3.473a1.118,1.118,0,0,1,.956-1.186l1.8-.259a1.044,1.044,0,0,0,.9-1.012c.1-4.149.507-18.126,1.766-23.833a2.238,2.238,0,0,1,1.182-1.521,27.214,27.214,0,0,0,9.5-8.31,29.9,29.9,0,0,0,4.548-9.583,39.893,39.893,0,0,0,1.092-14.147h0c-1.847-20.816-17.547-23.837-22.315-24.267a2.238,2.238,0,0,1-2.027-2.023,15.059,15.059,0,0,0-3.339-8.278c-3.075-3.609-7.965-5.348-14.537-5.167a2.241,2.241,0,0,1-2.094-1.292,17.8,17.8,0,0,0-5.409-6.563c-3.881-2.916-8.859-4.3-14.8-4.115a2.238,2.238,0,0,1-2.3-2.34l2.364-52.792c0-.005,0-.01,0-.015a14.836,14.836,0,0,0-.913-4.893,11.8,11.8,0,0,0-6.99-7.2A118.141,118.141,0,0,0,54.756,2.4l-.141-.029a13.76,13.76,0,0,0-4.371.08A16.4,16.4,0,0,0,43.47,5.122c-3.644,2.546-5.9,6.569-6.719,11.959-2.119,14.03-5.427,56.549-6.069,64.929A2.25,2.25,0,0,1,29.057,84,33.092,33.092,0,0,0,16,91.375a30.233,30.233,0,0,0-6.858,9.415,37.578,37.578,0,0,0-3.307,14.773c-.748,23.156,10.771,30.431,14.319,32.109a2.23,2.23,0,0,1,1.276,2.121l-.545,12.561a1.117,1.117,0,0,1-1.5,1c-2.254-.829-6.3-2.585-8.052-5.029a1.117,1.117,0,0,1-.208-.587,13.509,13.509,0,0,1,.32-4.22.915.915,0,0,0-.179-.985,1.568,1.568,0,0,0-1.617-.129c-.858.335-1.563,1.708-1.936,2.881a1.118,1.118,0,0,1-1.255.763,4.8,4.8,0,0,0-3.075.322,1.726,1.726,0,0,0-.775,1.257,1.505,1.505,0,0,0,.183,1.1,1.118,1.118,0,0,1-.239,1.487.827.827,0,0,0-.268.35c-.035.092-.142.376.163.964a1.117,1.117,0,0,1,.07.864,1.874,1.874,0,0,0,.016,1.269,1.53,1.53,0,0,0,1.028.75,2.981,2.981,0,0,0,.848.13,2.093,2.093,0,0,0,1.164-.329,1.117,1.117,0,0,1,.928-.135,6.967,6.967,0,0,0,4.133.062,1.117,1.117,0,0,1,1.077.128c.722.521,4.495,3.134,7.856,3.368A1.117,1.117,0,0,1,20.6,168.8l-.535,12.325a1.053,1.053,0,0,0,.99,1.093l19.808,1.1a1.117,1.117,0,0,1,1.055,1.116v11.715a1.118,1.118,0,0,1-.676,1.027c-.525.226-1.9.831-3.3,1.574-3.214,1.7-3.607,2.516-3.651,2.727-.062.3-.137.823.047,1.05s.719.223,1.008.223H48.066a1.115,1.115,0,0,1,.144.009h.014a.135.135,0,0,0,.044-.006.758.758,0,0,0,.061-.465c-.063-1.037-.877-12.08-1.184-16.237l-.083-1.124a1.118,1.118,0,0,1,1.114-1.2m76.446,14.98h0" transform="translate(0 -0.003)" fill="#fff"/>
      <path id="Path_409" data-name="Path 409" d="M933.964,254.5c.055-.059,2.526-2.732.486-9.85-1.554-5.418-3.7-6.982-3.789-7.048a50.928,50.928,0,0,1,2.794,7.362,21.934,21.934,0,0,1,.778,3.313l-8.294,1.193c.135-4.956.848-21.381,1.925-26.761a1.11,1.11,0,0,1,.529-.764c4-2.216,16.913-11.157,15.138-33.2-1.746-21.678-16.672-24.835-21.2-25.286a1.051,1.051,0,0,1-.882-1.007,14.541,14.541,0,0,0-3.358-8.278c-3.026-3.456-7.77-5.112-14.1-4.92a.97.97,0,0,1-.9-.633,18.763,18.763,0,0,0-5.22-6.984c-3.723-3.082-8.472-4.547-14.116-4.354a.883.883,0,0,1-.66-.273,1.207,1.207,0,0,1-.335-.9l2.229-57.518v-.008a17.288,17.288,0,0,0-.887-5.293,13.189,13.189,0,0,0-3.784-5.9c2.548.758,4.988,1.577,7.231,2.432a11.679,11.679,0,0,1,7.021,7.212,15.136,15.136,0,0,1,.93,4.957L893.133,134.8a2.166,2.166,0,0,0,2.228,2.263c.346-.011.685-.016,1.02-.016,13.187,0,18.057,8.176,19.254,10.736a2.169,2.169,0,0,0,2.025,1.251c15.053-.414,17.569,9.312,17.953,13.513a2.161,2.161,0,0,0,1.959,1.955c4.783.432,20.53,3.463,22.383,24.336.836,9.418-1.067,17.419-5.655,23.78a27.289,27.289,0,0,1-9.523,8.333,2.161,2.161,0,0,0-1.143,1.471c-1.258,5.7-1.669,19.672-1.764,23.818a1.12,1.12,0,0,1-.963,1.085l-1.742.251c-.421-7.368-4.014-10.218-4.014-10.218,4.19,6.356,3.152,15.08,3.148,15.183l-.017.415.4.109c1.766.482,1.849,2.654,1.608,4.392a1.747,1.747,0,0,1-1.424,1.52,2.081,2.081,0,0,0-.428.154,1.775,1.775,0,0,1-1.306-.024,1.925,1.925,0,0,0-1.378.041,2.331,2.331,0,0,1-2.219-.223,2.053,2.053,0,0,1-1.1-1.814,5.319,5.319,0,0,0,1.074.1,1.754,1.754,0,0,0,.121.329.447.447,0,1,0,.817-.082,1.8,1.8,0,0,0-.125-1.241,1.659,1.659,0,0,0-.469-.58,1.591,1.591,0,0,0-.3.532c-.916,0-1.538-.2-1.77-.571s-.125-.988.295-1.743a2.221,2.221,0,0,1,2.263-1.108,8.408,8.408,0,0,1-.373,1.756" transform="translate(-814.732 -62.37)" fill="#e75256"/>
      <path id="Path_410" data-name="Path 410" d="M995.552,2517l-.062.018a.164.164,0,0,1-.109-.024c-.012-.01-.112-.115-.087-.526.072-1.2-1.634-12.857-2.1-16l6.495.362,2.037,9.335c-.147.008-.294.019-.44.035a6.092,6.092,0,0,0-1.134.235,4.808,4.808,0,0,0-.539.205,4.035,4.035,0,0,0-.5.279,3.222,3.222,0,0,0-.44.356,2.856,2.856,0,0,0-.354.427,2.827,2.827,0,0,1,.434-.324,3.113,3.113,0,0,1,.479-.227,3.737,3.737,0,0,1,.505-.138,4.4,4.4,0,0,1,.516-.065,5.469,5.469,0,0,1,1.035.036c.171.022.341.05.508.085.084.018.167.037.248.057l.117.031.013.005c.018.007,1.811.751,3.624,1.71,3.237,1.712,3.637,2.557,3.683,2.774a1.462,1.462,0,0,1-.062,1.113c-.179.219-.618.25-1.067.25h-12.76Z" transform="translate(-919.203 -2314.184)" fill="#005cbf"/>
      <path id="Path_411" data-name="Path 411" d="M472.565,2494.222c.025.41-.075.515-.087.525a.162.162,0,0,1-.108.024l-.031-.01H459.505c-.448,0-.887-.031-1.066-.25a1.457,1.457,0,0,1-.062-1.113c.045-.218.445-1.062,3.683-2.774,1.813-.959,3.607-1.7,3.624-1.71l.323-.133V2476.43l5.281.294c.2,2.689,1.208,16.348,1.277,17.5" transform="translate(-424.164 -2291.936)" fill="#005cbf"/>
      <path id="Path_412" data-name="Path 412" d="M50.723,2053.815l-.187,4.31c-3.779-.277-8.053-3.516-8.1-3.549l-.259-.2-.292.146a6.12,6.12,0,0,1-3.84.188,2.6,2.6,0,0,0,.435-1.573,2.273,2.273,0,0,0,.6-2.562,1.775,1.775,0,0,0,.3-2.212,2.912,2.912,0,0,0-3.762-1.31,2.97,2.97,0,0,1,2.829,1.776c.126.37.221.787-.07.974a5.041,5.041,0,0,1-4.185-.165,1.466,1.466,0,0,1-.659-1.608,1.816,1.816,0,0,1,.806-1.305c1.269-.825,3.522-.256,3.543-.25l.51.133.128-.51c.2-.779.956-2.9,2.1-3.347a1.639,1.639,0,0,1,1.695.145.974.974,0,0,1,.2,1.062,14.391,14.391,0,0,0-.306,4.35l.01.138.077.115c1.895,2.806,6.982,4.748,8.425,5.255" transform="translate(-31.008 -1890.418)" fill="#005cbf"/>
      <path id="Path_413" data-name="Path 413" d="M33.929,2149.305a1.218,1.218,0,0,1-.688,1.565c-1.313.667-3.577.259-4.008-.5a1.369,1.369,0,0,1-.222-1.119.974.974,0,0,1,.4-.459l.012.008a6.1,6.1,0,0,0,4.51.507" transform="translate(-26.806 -1988.705)" fill="#005cbf"/>
      <path id="Path_414" data-name="Path 414" d="M35.268,2187.715a1.788,1.788,0,0,1-.489.754,2.369,2.369,0,0,1-2.342.415,1.621,1.621,0,0,1-1.07-.783,1.515,1.515,0,0,1-.133-.74,4.95,4.95,0,0,0,2.446.585,5.355,5.355,0,0,0,1.588-.231" transform="translate(-28.904 -2024.402)" fill="#005cbf"/>
      <path id="Path_415" data-name="Path 415" d="M198.828,153.208c1.725,21.424-10.741,30.068-14.6,32.208a2.147,2.147,0,0,0-1.047,1.471c-1.12,5.595-1.825,22.233-1.95,27.111a1.044,1.044,0,0,1-.108,0l-89-4.958a1.127,1.127,0,0,1-1.059-1.17l1.36-31.334a2.159,2.159,0,0,0-1.233-2.05c-3.559-1.682-15.111-8.975-14.362-32.178.757-23.476,18.008-30.151,23.278-31.638a2.173,2.173,0,0,0,1.573-1.919c.641-8.381,3.949-50.9,6.07-64.935.817-5.41,3.088-9.45,6.748-12.009a16.569,16.569,0,0,1,11.2-2.762l.139.028c2.439.495,4.89,1.069,7.286,1.7a11.217,11.217,0,0,1,6.312,7.189,16.594,16.594,0,0,1,.845,4.97l-2.229,57.511a2.252,2.252,0,0,0,.637,1.679,1.916,1.916,0,0,0,1.436.581c12.623-.433,17.228,8.083,18.34,10.7a2.006,2.006,0,0,0,1.892,1.268c13.84-.419,16.07,8.422,16.386,12.242a2.09,2.09,0,0,0,1.818,1.959c4.33.431,18.587,3.46,20.269,24.332" transform="translate(-71.068 -26.748)" fill="#005cbf"/>
      <path id="Path_416" data-name="Path 416" d="M780.023,2125.33a2.776,2.776,0,0,0,.871-1.773,5.61,5.61,0,0,0-3.235.4c-1.462.75-1.431,1.559-1.431,1.559a3.423,3.423,0,0,0,3.795-.187" transform="translate(-718.399 -1965.277)" fill="#fcdedf"/>
      <path id="Path_417" data-name="Path 417" d="M933.964,254.5c.055-.059,2.526-2.732.486-9.85-1.554-5.418-3.7-6.982-3.789-7.048a50.928,50.928,0,0,1,2.794,7.362,21.934,21.934,0,0,1,.778,3.313l-8.294,1.193c.135-4.956.848-21.381,1.925-26.761a1.11,1.11,0,0,1,.529-.764c4-2.216,16.913-11.157,15.138-33.2-1.746-21.678-16.672-24.835-21.2-25.286a1.051,1.051,0,0,1-.882-1.007,14.541,14.541,0,0,0-3.358-8.278c-3.026-3.456-7.77-5.112-14.1-4.92a.97.97,0,0,1-.9-.633,18.763,18.763,0,0,0-5.22-6.984c-3.723-3.082-8.472-4.547-14.116-4.354a.883.883,0,0,1-.66-.273,1.207,1.207,0,0,1-.335-.9l2.229-57.518v-.008a17.288,17.288,0,0,0-.887-5.293,13.189,13.189,0,0,0-3.784-5.9c2.548.758,4.988,1.577,7.231,2.432a11.679,11.679,0,0,1,7.021,7.212,15.136,15.136,0,0,1,.93,4.957L893.133,134.8a2.166,2.166,0,0,0,2.228,2.263c.346-.011.685-.016,1.02-.016,13.187,0,18.057,8.176,19.254,10.736a2.169,2.169,0,0,0,2.025,1.251c15.053-.414,17.569,9.312,17.953,13.513a2.161,2.161,0,0,0,1.959,1.955c4.783.432,20.53,3.463,22.383,24.336.836,9.418-1.067,17.419-5.655,23.78a27.289,27.289,0,0,1-9.523,8.333,2.161,2.161,0,0,0-1.143,1.471c-1.258,5.7-1.669,19.672-1.764,23.818a1.12,1.12,0,0,1-.963,1.085l-1.742.251c-.421-7.368-4.014-10.218-4.014-10.218,4.19,6.356,3.152,15.08,3.148,15.183l-.017.415.4.109c1.766.482,1.849,2.654,1.608,4.392a1.747,1.747,0,0,1-1.424,1.52,2.081,2.081,0,0,0-.428.154,1.775,1.775,0,0,1-1.306-.024,1.925,1.925,0,0,0-1.378.041,2.331,2.331,0,0,1-2.219-.223,2.053,2.053,0,0,1-1.1-1.814,5.319,5.319,0,0,0,1.074.1,1.754,1.754,0,0,0,.121.329.447.447,0,1,0,.817-.082,1.8,1.8,0,0,0-.125-1.241,1.659,1.659,0,0,0-.469-.58,1.591,1.591,0,0,0-.3.532c-.916,0-1.538-.2-1.77-.571s-.125-.988.295-1.743a2.221,2.221,0,0,1,2.263-1.108,8.408,8.408,0,0,1-.373,1.756" transform="translate(-814.732 -62.37)" fill="#00438b"/>
      <path id="Path_418" data-name="Path 418" d="M207.949,2185.852a3.9,3.9,0,0,0,2.339-1.844,3.173,3.173,0,0,0,.675-2.788l1.844.458-.315,5.164s-2.316-.444-4.543-.989" transform="translate(-192.457 -2018.719)" fill="#00438b"/>
      <path id="Path_419" data-name="Path 419" d="M556.575,2471.817s5.266.582,6.351,4.262v-6.509l-6.351-.552Z" transform="translate(-515.11 -2285.076)" fill="#00438b"/>
      <path id="Path_420" data-name="Path 420" d="M983.815,2496.019s4.163.447,5.206,3.427a7.487,7.487,0,0,1-.745,6.109s4.619-.149,7.078,1.713,0,3.2,0,3.2,4.7.815,5.364-.466-.685-2.365-3.5-4.376a12.236,12.236,0,0,0-4.247-2.256l-2.011-9.919-7.673-.565Z" transform="translate(-910.029 -2307.169)" fill="#00438b"/>
      <rect id="Rectangle_326" data-name="Rectangle 326" width="15.492" height="0.373" transform="translate(106.217 100.821)" fill="#145faf"/>
      <rect id="Rectangle_327" data-name="Rectangle 327" width="16.882" height="0.373" transform="translate(112.74 159.682) rotate(-0.757)" fill="#145faf"/>
      <rect id="Rectangle_328" data-name="Rectangle 328" width="14" height="0.372" transform="matrix(0.998, -0.062, 0.062, 0.998, 88.048, 86.595)" fill="#145faf"/>
      <rect id="Rectangle_329" data-name="Rectangle 329" width="11.792" height="0.372" transform="translate(67.76 74.552) rotate(-4.554)" fill="#145faf"/>
      <path id="Path_424" data-name="Path 424" d="M624.733,2072.22c0,.572-1.641,1.035-3.666,1.035s-3.666-.463-3.666-1.035,1.641-1.036,3.666-1.036,3.666.464,3.666,1.036" transform="translate(-571.405 -1916.881)" fill="#00438b"/>
      <path id="Path_425" data-name="Path 425" d="M913.4,2082.886c0,.572-1.641,1.035-3.666,1.035s-3.666-.464-3.666-1.035,1.641-1.035,3.666-1.035,3.666.463,3.666,1.035" transform="translate(-838.567 -1926.753)" fill="#00438b"/>
      <path id="Path_426" data-name="Path 426" d="M478.313,155.242l-1.341-.031L478.751,78.2l.007-.044a6.629,6.629,0,0,0-1.438-4.768c-1.652-2-4.564-3.11-8.656-3.286-4.672-.2-8.273.966-10.411,3.376a7.679,7.679,0,0,0-1.856,3.739l-7.153,73.126-1.335-.13,7.155-73.144a8.848,8.848,0,0,1,2.129-4.415,10.519,10.519,0,0,1,4.152-2.858,18.094,18.094,0,0,1,7.377-1.032c4.5.194,7.749,1.47,9.651,3.794a7.893,7.893,0,0,1,1.717,5.758Z" transform="translate(-414.54 -63.614)" fill="#fcdedf"/>
      <path id="Path_427" data-name="Path 427" d="M756.208,1129.937a12.012,12.012,0,0,1-11.185-16.265l7.311-19.177a11.993,11.993,0,0,1,22.413,8.544l-7.31,19.177a12.065,12.065,0,0,1-11.228,7.721m7.354-41.822a10.722,10.722,0,0,0-9.975,6.857l-7.31,19.177a10.685,10.685,0,0,0,6.159,13.748h0a10.685,10.685,0,0,0,13.748-6.159l7.31-19.177a10.651,10.651,0,0,0-9.931-14.446" transform="translate(-688.79 -1005.809)" fill="#fcdedf"/>
      <path id="Path_428" data-name="Path 428" d="M1010.281,1288.677a10.569,10.569,0,0,1-9.863-14.333l8.326-21.84a10.568,10.568,0,0,1,19.749,7.529l-8.326,21.84a10.586,10.586,0,0,1-9.886,6.8m-3.275-1.947a9.237,9.237,0,0,0,11.908-5.335l8.326-21.84a9.227,9.227,0,0,0-17.243-6.573l-8.326,21.84a9.237,9.237,0,0,0,5.335,11.908Z" transform="translate(-925.245 -1152.896)" fill="#fcdedf"/>
      <path id="Path_429" data-name="Path 429" d="M1206.388,1514.913a11.085,11.085,0,0,1-5.559-1.5l-1.058-.611a11.228,11.228,0,0,1-4.1-15.3l11.057-19.152a11.228,11.228,0,0,1,15.3-4.1l1.058.611a11.229,11.229,0,0,1,4.1,15.3l-11.057,19.152a11.117,11.117,0,0,1-6.8,5.2,11.333,11.333,0,0,1-2.935.389m10.055-40.809a9.862,9.862,0,0,0-8.552,4.926l-11.057,19.152a9.887,9.887,0,0,0,3.608,13.464l1.058.611a9.887,9.887,0,0,0,13.464-3.608l11.057-19.152a9.887,9.887,0,0,0-3.607-13.464l-1.058-.611a9.8,9.8,0,0,0-4.912-1.318" transform="translate(-1105.21 -1363.044)" fill="#fcdedf"/>
      <path id="Path_430" data-name="Path 430" d="M228.75,1167.918l-.674-.039-79.054-4.6.894-29.688a3.1,3.1,0,0,0-1.387-2.682,40.551,40.551,0,0,1-9.162-8.447,28.111,28.111,0,0,1-6.309-16.578c-.253-7.511,1.233-12.985,4.818-17.749,3.371-4.479,8.451-8.179,14.882-12.863q1.517-1.1,3.138-2.293a49.947,49.947,0,0,1,8.726-5.307c3.887-1.776,7.316-2.4,10.192-1.862a10.239,10.239,0,0,1,6.866,4.905,17.179,17.179,0,0,1,2.705,7.032,12.854,12.854,0,0,1-.69,5.989c-1.262,3.5-3.772,6.3-6.235,8.863-4.506,4.694-28.777,21.789-29.808,22.514l-.772-1.1c.251-.177,25.2-17.745,29.612-22.346,5.147-5.362,9.7-11.341,4.054-20.237a8.949,8.949,0,0,0-5.981-4.306c-4.468-.839-10.483,1.493-17.877,6.931-1.083.8-2.13,1.559-3.142,2.3-12.677,9.234-19.66,14.32-19.149,29.483.437,12.952,10.548,21.067,14.875,23.955a4.43,4.43,0,0,1,1.983,3.838l-.855,28.385,77.079,4.488,1.051-20.4a4.449,4.449,0,0,1,2.862-3.914c5.212-2,10.985-7.035,12.131-13.792a41.963,41.963,0,0,0,.007-14.663l1.308-.3a42.6,42.6,0,0,1,.007,15.183,18.1,18.1,0,0,1-5.046,9.541,22.657,22.657,0,0,1-7.928,5.278,3.108,3.108,0,0,0-2,2.731Z" transform="translate(-123.12 -986.229)" fill="#fcdedf"/>
      <path id="Path_431" data-name="Path 431" d="M160.125,140.257c-1.924-21.678-18.342-24.832-23.328-25.282a1.119,1.119,0,0,1-1.015-1.011,16.191,16.191,0,0,0-3.6-8.9c-3.3-3.879-8.492-5.75-15.418-5.559a1.124,1.124,0,0,1-1.052-.65,18.951,18.951,0,0,0-5.75-6.982c-4.089-3.072-9.3-4.532-15.5-4.339a1.122,1.122,0,0,1-1.153-1.173l2.365-52.814v-.01a15.861,15.861,0,0,0-.98-5.309,12.891,12.891,0,0,0-7.642-7.863,119.373,119.373,0,0,0-18.211-5.177l-.138-.028a17.484,17.484,0,0,0-12.01,2.93c-3.9,2.728-6.321,7-7.183,12.708-2.126,14.073-5.437,56.624-6.079,65.011a1.128,1.128,0,0,1-.816,1A34.263,34.263,0,0,0,29.1,104.437a31.347,31.347,0,0,0-7.111,9.762,38.691,38.691,0,0,0-3.412,15.21c-.769,23.838,11.255,31.4,14.959,33.155a1.117,1.117,0,0,1,.637,1.062l-.545,12.562c-1.63-.6-5.878-2.332-7.53-4.632a12.9,12.9,0,0,1,.267-3.81,2.014,2.014,0,0,0-.475-2.142,2.631,2.631,0,0,0-2.789-.358c-1.481.578-2.288,2.619-2.595,3.584a5.775,5.775,0,0,0-3.873.486,2.843,2.843,0,0,0-1.27,2.011,2.6,2.6,0,0,0,.351,1.9,1.938,1.938,0,0,0-.617.827,2.252,2.252,0,0,0,.215,1.876,2.939,2.939,0,0,0,.07,2.1,2.606,2.606,0,0,0,1.715,1.337,4.092,4.092,0,0,0,1.168.177,3.214,3.214,0,0,0,1.774-.511,8,8,0,0,0,4.874.025c1.016.733,4.838,3.327,8.433,3.577l-.535,12.326a2.175,2.175,0,0,0,2.044,2.257l19.808,1.1v11.715c-.605.26-1.972.865-3.385,1.612-3.521,1.861-4.1,2.882-4.223,3.487a2.286,2.286,0,0,0,.274,1.983,2.316,2.316,0,0,0,1.876.635H61.927a1.26,1.26,0,0,0,.159.01,1.169,1.169,0,0,0,.769-.274,1.6,1.6,0,0,0,.451-1.382c-.07-1.154-1.045-14.353-1.268-17.376l24.756,1.379c.9,6.106,2.174,15.112,2.12,16a1.6,1.6,0,0,0,.451,1.382,1.169,1.169,0,0,0,.769.274,1.261,1.261,0,0,0,.159-.01h12.721a2.316,2.316,0,0,0,1.876-.635,2.286,2.286,0,0,0,.274-1.983c-.126-.606-.7-1.626-4.222-3.487-1.47-.777-2.891-1.4-3.455-1.642l-2.054-9.414,28.424,1.583q.06,0,.121,0a2.168,2.168,0,0,0,.309-.022l9.207-1.324a16.684,16.684,0,0,1,.064,2.389,3.268,3.268,0,0,0-3.264,1.643c-.785,1.413-.579,2.3-.268,2.8a1.854,1.854,0,0,0,.535.552,3.051,3.051,0,0,0,1.551,3.1,3.476,3.476,0,0,0,1.873.564,3.413,3.413,0,0,0,1.3-.262.886.886,0,0,1,.634-.02,2.777,2.777,0,0,0,2.1-.018,1.056,1.056,0,0,1,.215-.08,2.82,2.82,0,0,0,2.223-2.393c.393-2.828-.306-4.728-1.971-5.408.013-.633.018-1.952-.1-3.577l1.8-.259a2.16,2.16,0,0,0,1.857-2.094c.1-4.123.5-18.01,1.74-23.617a1.122,1.122,0,0,1,.593-.764,28.374,28.374,0,0,0,9.9-8.655A31.019,31.019,0,0,0,159,154.8a41.014,41.014,0,0,0,1.128-14.543M20.987,174.485a1.218,1.218,0,0,1-.687,1.565c-1.313.667-3.578.258-4.008-.5a1.369,1.369,0,0,1-.222-1.119.974.974,0,0,1,.4-.459l.012.008a6.1,6.1,0,0,0,4.51.507M17.4,178.367a1.621,1.621,0,0,1-1.07-.783,1.519,1.519,0,0,1-.132-.741,4.949,4.949,0,0,0,2.445.585,5.346,5.346,0,0,0,1.589-.231,1.779,1.779,0,0,1-.49.754,2.368,2.368,0,0,1-2.342.415m7.9-.324-.259-.2-.292.147a6.119,6.119,0,0,1-3.84.186,2.6,2.6,0,0,0,.435-1.573,2.273,2.273,0,0,0,.6-2.562,1.773,1.773,0,0,0,.3-2.211,2.911,2.911,0,0,0-3.762-1.31A2.97,2.97,0,0,1,21.3,172.3c.126.37.221.786-.07.974a5.041,5.041,0,0,1-4.185-.165,1.466,1.466,0,0,1-.658-1.608,1.817,1.817,0,0,1,.806-1.306c1.269-.825,3.521-.255,3.543-.249l.509.133.128-.51c.2-.78.956-2.9,2.1-3.348a1.639,1.639,0,0,1,1.695.145.974.974,0,0,1,.2,1.062,14.384,14.384,0,0,0-.306,4.35l.01.138.077.115c1.895,2.806,6.982,4.748,8.425,5.254l-.187,4.31c-3.779-.277-8.054-3.516-8.1-3.549m36.97,38.128c.025.41-.076.515-.087.525a.163.163,0,0,1-.108.024l-.031-.01H49.206c-.448,0-.888-.03-1.067-.25a1.46,1.46,0,0,1-.062-1.112c.045-.218.445-1.063,3.683-2.774,1.813-.959,3.607-1.7,3.625-1.71l.322-.133V198.379l5.281.294c.2,2.689,1.207,16.348,1.277,17.5m34.124-6.3c-.147.008-.294.019-.44.035a6.156,6.156,0,0,0-1.133.235,4.914,4.914,0,0,0-.539.206,4,4,0,0,0-.5.279,3.227,3.227,0,0,0-.44.356,2.884,2.884,0,0,0-.354.427,2.827,2.827,0,0,1,.434-.324,3.031,3.031,0,0,1,.479-.227,3.682,3.682,0,0,1,.5-.139,4.48,4.48,0,0,1,.516-.066,5.515,5.515,0,0,1,1.035.036c.171.022.341.05.508.085.084.018.167.037.248.057l.117.031.012.005c.018.007,1.812.751,3.625,1.71,3.237,1.712,3.637,2.556,3.683,2.774a1.46,1.46,0,0,1-.062,1.112c-.179.22-.618.25-1.067.25H90.254l-.041-.008-.062.018a.162.162,0,0,1-.109-.024c-.012-.011-.112-.115-.087-.525.073-1.2-1.634-12.857-2.1-16l6.495.362Zm27.526-8.733-89-4.958a1.128,1.128,0,0,1-1.06-1.17l1.36-31.334a2.157,2.157,0,0,0-1.233-2.05c-3.558-1.682-15.111-8.975-14.362-32.179.757-23.475,18.009-30.151,23.278-31.638a2.174,2.174,0,0,0,1.573-1.919c.642-8.381,3.949-50.9,6.07-64.935.817-5.41,3.088-9.451,6.749-12.009a16.569,16.569,0,0,1,11.2-2.763l.139.028c2.44.495,4.891,1.07,7.286,1.7A11.217,11.217,0,0,1,82.231,25.1a16.584,16.584,0,0,1,.845,4.97L80.846,87.582a2.253,2.253,0,0,0,.637,1.679,1.915,1.915,0,0,0,1.436.581c12.623-.433,17.229,8.082,18.34,10.7a2.006,2.006,0,0,0,1.892,1.268c13.839-.42,16.07,8.421,16.386,12.241a2.09,2.09,0,0,0,1.818,1.959c4.33.431,18.587,3.459,20.268,24.332,1.725,21.424-10.741,30.069-14.6,32.208a2.146,2.146,0,0,0-1.046,1.471c-1.12,5.6-1.826,22.233-1.95,27.111-.036,0-.072,0-.108,0m29.517-37a27.3,27.3,0,0,1-9.523,8.333,2.16,2.16,0,0,0-1.143,1.471c-1.258,5.7-1.669,19.671-1.764,23.818a1.12,1.12,0,0,1-.963,1.085l-1.742.251c-.421-7.368-4.014-10.217-4.014-10.217,4.19,6.356,3.152,15.079,3.148,15.183l-.017.416.4.109c1.766.482,1.849,2.654,1.607,4.392A1.747,1.747,0,0,1,138,210.49a2.087,2.087,0,0,0-.429.154,1.772,1.772,0,0,1-1.305-.024,1.927,1.927,0,0,0-1.378.041,2.33,2.33,0,0,1-2.219-.223,2.053,2.053,0,0,1-1.1-1.814,5.381,5.381,0,0,0,1.074.1,1.732,1.732,0,0,0,.122.329,1.638,1.638,0,0,0,.471.58,1.638,1.638,0,0,0,.346-.662,1.762,1.762,0,0,0,.048-.632,1.785,1.785,0,0,0-.174-.61,1.652,1.652,0,0,0-.469-.58,1.585,1.585,0,0,0-.3.532c-.916,0-1.539-.2-1.771-.572s-.125-.987.3-1.743a2.221,2.221,0,0,1,2.264-1.108,8.382,8.382,0,0,1-.374,1.756s2.55-2.653.486-9.85c-1.554-5.419-3.7-6.982-3.789-7.048a50.914,50.914,0,0,1,2.794,7.362,21.934,21.934,0,0,1,.779,3.313l-8.294,1.193c.135-4.957.848-21.381,1.925-26.762a1.107,1.107,0,0,1,.529-.764c4-2.215,16.913-11.158,15.138-33.2-1.746-21.678-16.672-24.835-21.2-25.286a1.05,1.05,0,0,1-.882-1.007,14.547,14.547,0,0,0-3.359-8.278c-3.026-3.456-7.771-5.112-14.1-4.92a.971.971,0,0,1-.9-.633A18.761,18.761,0,0,0,97,93.154c-3.723-3.083-8.472-4.547-14.116-4.354a.884.884,0,0,1-.66-.274,1.208,1.208,0,0,1-.334-.9l2.229-57.517V30.1a17.288,17.288,0,0,0-.887-5.293,13.2,13.2,0,0,0-3.784-5.9c2.547.758,4.988,1.577,7.231,2.433A11.679,11.679,0,0,1,93.7,28.549a15.138,15.138,0,0,1,.93,4.956L92.264,86.313a2.165,2.165,0,0,0,2.227,2.262c.346-.011.685-.016,1.02-.016,13.187,0,18.057,8.176,19.254,10.736a2.167,2.167,0,0,0,2.025,1.251c15.052-.414,17.569,9.312,17.953,13.513a2.161,2.161,0,0,0,1.96,1.955c4.782.432,20.53,3.463,22.382,24.335.836,9.418-1.066,17.419-5.654,23.781" transform="translate(-13.862 -13.885)" fill="#005cbf"/>
      <path id="Path_432" data-name="Path 432" d="M600.945,1983.2q-.237,0-.478-.017a5.467,5.467,0,0,1-4.194-2.179,5.091,5.091,0,0,1-.9-1.975.745.745,0,0,1,1.467-.261,3.847,3.847,0,0,0,3.736,2.928,4.98,4.98,0,0,0,4.712-2.887.745.745,0,0,1,1.361.607,7.216,7.216,0,0,1-1.44,2,5.97,5.97,0,0,1-4.265,1.785" transform="translate(-551.008 -1830.785)" fill="#fcdedf"/>
      <path id="Path_433" data-name="Path 433" d="M884.082,1997.291q-.268,0-.541-.021a5.736,5.736,0,0,1-4.333-2.2,5,5,0,0,1-.926-1.988.745.745,0,0,1,1.467-.262,3.974,3.974,0,0,0,3.908,2.961,5.227,5.227,0,0,0,4.979-2.863.745.745,0,0,1,1.346.638,7.207,7.207,0,0,1-1.517,1.988,6.325,6.325,0,0,1-4.384,1.744" transform="translate(-812.84 -1843.79)" fill="#fcdedf"/>
      <path id="Path_434" data-name="Path 434" d="M768.587,2100.173a.564.564,0,0,0-.477-.111,10.854,10.854,0,0,1-2.655.29,7.662,7.662,0,0,1-1.956-.383h0a.57.57,0,0,0-.746.48,4.3,4.3,0,0,0,.656,3.112,2.47,2.47,0,0,0,1.822.841q.149.01.293.009a3.05,3.05,0,0,0,2.176-.789,4.215,4.215,0,0,0,1.1-3,.57.57,0,0,0-.215-.444m-1.144,3.178a2.806,2.806,0,0,1-2.189.679,2.278,2.278,0,0,1-1.258-.423,2.442,2.442,0,0,1,1.814-1.515,3.846,3.846,0,0,1,2.418-.074,3.028,3.028,0,0,1-.784,1.333" transform="translate(-705.888 -1943.494)" fill="#00438b"/>
      <path id="Path_435" data-name="Path 435" d="M415.422,1813.637a.594.594,0,0,1-.424-.177l-7.5-7.583a.6.6,0,1,1,.847-.838l7.5,7.583a.6.6,0,0,1-.424,1.015" transform="translate(-376.976 -1670.399)" fill="#fff"/>
    </g>
  </g>
</svg>
