<svg id="visual" viewBox="0 0 2560 1440" width="2560" height="1440" xmlns="http://www.w3.org/2000/svg" xmlns:xlink="http://www.w3.org/1999/xlink" version="1.1"><rect x="0" y="0" width="2560" height="1440" fill="#001220"></rect><path d="M0 897L61 925C122 953 244 1009 365.8 1006.3C487.7 1003.7 609.3 942.3 731.2 908.8C853 875.3 975 869.7 1097 890.5C1219 911.3 1341 958.7 1463 983C1585 1007.3 1707 1008.7 1828.8 995.8C1950.7 983 2072.3 956 2194.2 959.5C2316 963 2438 997 2499 1014L2560 1031L2560 1441L2499 1441C2438 1441 2316 1441 2194.2 1441C2072.3 1441 1950.7 1441 1828.8 1441C1707 1441 1585 1441 1463 1441C1341 1441 1219 1441 1097 1441C975 1441 853 1441 731.2 1441C609.3 1441 487.7 1441 365.8 1441C244 1441 122 1441 61 1441L0 1441Z" fill="#fa7268"></path><path d="M0 984L61 995.2C122 1006.3 244 1028.7 365.8 1038C487.7 1047.3 609.3 1043.7 731.2 1056.8C853 1070 975 1100 1097 1096.3C1219 1092.7 1341 1055.3 1463 1027.5C1585 999.7 1707 981.3 1828.8 980C1950.7 978.7 2072.3 994.3 2194.2 1022C2316 1049.7 2438 1089.3 2499 1109.2L2560 1129L2560 1441L2499 1441C2438 1441 2316 1441 2194.2 1441C2072.3 1441 1950.7 1441 1828.8 1441C1707 1441 1585 1441 1463 1441C1341 1441 1219 1441 1097 1441C975 1441 853 1441 731.2 1441C609.3 1441 487.7 1441 365.8 1441C244 1441 122 1441 61 1441L0 1441Z" fill="#ef5f67"></path><path d="M0 1073L61 1092.3C122 1111.7 244 1150.3 365.8 1158.5C487.7 1166.7 609.3 1144.3 731.2 1121.8C853 1099.3 975 1076.7 1097 1082C1219 1087.3 1341 1120.7 1463 1129.2C1585 1137.7 1707 1121.3 1828.8 1106.8C1950.7 1092.3 2072.3 1079.7 2194.2 1084.8C2316 1090 2438 1113 2499 1124.5L2560 1136L2560 1441L2499 1441C2438 1441 2316 1441 2194.2 1441C2072.3 1441 1950.7 1441 1828.8 1441C1707 1441 1585 1441 1463 1441C1341 1441 1219 1441 1097 1441C975 1441 853 1441 731.2 1441C609.3 1441 487.7 1441 365.8 1441C244 1441 122 1441 61 1441L0 1441Z" fill="#e34c67"></path><path d="M0 1182L61 1190.3C122 1198.7 244 1215.3 365.8 1224.8C487.7 1234.3 609.3 1236.7 731.2 1240.7C853 1244.7 975 1250.3 1097 1248.3C1219 1246.3 1341 1236.7 1463 1232.3C1585 1228 1707 1229 1828.8 1238.5C1950.7 1248 2072.3 1266 2194.2 1274C2316 1282 2438 1280 2499 1279L2560 1278L2560 1441L2499 1441C2438 1441 2316 1441 2194.2 1441C2072.3 1441 1950.7 1441 1828.8 1441C1707 1441 1585 1441 1463 1441C1341 1441 1219 1441 1097 1441C975 1441 853 1441 731.2 1441C609.3 1441 487.7 1441 365.8 1441C244 1441 122 1441 61 1441L0 1441Z" fill="#d53867"></path><path d="M0 1266L61 1277.8C122 1289.7 244 1313.3 365.8 1316.8C487.7 1320.3 609.3 1303.7 731.2 1307C853 1310.3 975 1333.7 1097 1345C1219 1356.3 1341 1355.7 1463 1356.3C1585 1357 1707 1359 1828.8 1359.3C1950.7 1359.7 2072.3 1358.3 2194.2 1351.8C2316 1345.3 2438 1333.7 2499 1327.8L2560 1322L2560 1441L2499 1441C2438 1441 2316 1441 2194.2 1441C2072.3 1441 1950.7 1441 1828.8 1441C1707 1441 1585 1441 1463 1441C1341 1441 1219 1441 1097 1441C975 1441 853 1441 731.2 1441C609.3 1441 487.7 1441 365.8 1441C244 1441 122 1441 61 1441L0 1441Z" fill="#c62368"></path></svg>